<?xml version="1.0" encoding="UTF-8" standalone="no"?>
<!-- Creator: CorelDRAW -->

<svg
   xml:space="preserve"
   width="239.16646mm"
   height="47.869705mm"
   version="1.1"
   style="clip-rule:evenodd;fill-rule:evenodd;image-rendering:optimizeQuality;shape-rendering:geometricPrecision;text-rendering:geometricPrecision"
   viewBox="0 0 23916.646 4786.9705"
   id="svg15"
   xmlns="http://www.w3.org/2000/svg"
   xmlns:svg="http://www.w3.org/2000/svg">
 <defs
   id="defs4"><style
     type="text/css"
     id="style2">
   <![CDATA[
    .fil0 {fill:#373435}
    .fil1 {fill:#0F8CBB}
    .fil2 {fill:#373435;fill-rule:nonzero}
   ]]>
  </style></defs>
 <g
   id="Camada_x0020_1"
   transform="translate(-1595.3145,-15340.209)">
  <metadata
   id="CorelCorpID_0Corel-Layer" />
  <g
   id="_2239679950176"
   transform="matrix(1.0405791,0,0,1.0405791,-2816.6846,-700.45663)"
   style="fill:#ffffff;fill-opacity:1">
   <path
   class="fil0"
   d="m 4267.15,17583.25 c 1.84,76.97 19.71,221.46 76.86,279.12 49.03,49.44 126.86,94.12 240.42,138.96 637.75,251.87 1963.39,251.87 2601.14,0 113.56,-44.84 191.39,-89.52 240.42,-138.96 57.15,-57.66 75.02,-202.15 76.86,-279.12 -408.74,462.91 -2826.96,462.91 -3235.7,0 z m 524.34,-1386.88 c 295.45,341.26 1891.57,341.26 2187.02,0 47.5,-54.89 33.87,-91.86 -11.96,-133.16 -64.22,-57.89 -111.72,-94.93 -184.33,-142.85 1.71,6.98 2.57,14.03 2.57,21.14 0,370.39 -1799.58,370.39 -1799.58,0 0,-7.11 0.86,-14.16 2.57,-21.14 -72.61,47.92 -120.11,84.96 -184.33,142.85 -45.83,41.3 -59.46,78.27 -11.96,133.16 z m 732.72,-449.39 c 0,-28.58 45.46,-54.33 118,-72.28 -21.58,2.41 -381.32,48.02 -381.32,150.93 0,217.02 1248.22,217.02 1248.22,0 0,-102.91 -359.74,-148.52 -381.32,-150.93 72.54,17.95 118,43.7 118,72.28 0,129.75 -721.58,129.75 -721.58,0 z m 1967.61,1185.73 c 16.53,72.09 60.75,247.45 24.03,311.62 -231.37,403.87 -1683.84,406.95 -2175.82,360.13 -5.17,-90.93 -7.87,-184.39 -7.87,-279.76 l 0.07,-25.15 c 470.27,46.38 1979.41,48.92 2159.59,-366.84 z m -230.94,-505.11 c 22.71,30.98 124.83,150.71 124.83,212.56 0,389.2 -1668.75,372.31 -2041.44,338.17 6.83,-96.28 16.46,-189.44 28.6,-278.7 393.86,37.12 1731.93,49.2 1888.01,-272.03 z m -2332.21,2238.46 c 570.14,408.76 1342.52,408.76 1912.66,0 -519.19,216.85 -1393.47,216.85 -1912.66,0 z m -460.72,-515.69 c 0.3,1.06 0.49,2.11 0.81,3.17 15.08,47.87 88.98,156.34 125.92,189.89 464.1,422.19 2121.15,421.66 2582.34,-1.55 35.97,-32.97 109.41,-141.35 124.22,-188.34 0.32,-1.06 0.51,-2.11 0.81,-3.17 -487.83,396.58 -2346.27,396.58 -2834.1,0 z"
   id="path7"
   style="fill:#ffffff;fill-opacity:1" />
   <path
   class="fil1"
   d="m 4254.12,17043.04 c -14.05,75.63 -23.21,160.91 0.02,200.96 37.84,65.17 111.21,117.39 177.76,150.29 134.85,66.83 328.78,123.38 562.29,164.23 -5.9,-76.38 -8.96,-154.44 -8.96,-233.82 0,-237.1 27.14,-462.5 75.98,-666.25 -305.01,-53.52 -515.97,-136.13 -561.99,-230.85 -4.71,6.42 -12.82,16.65 -22.73,29.39 -109.09,176.03 -185.93,374.13 -222.37,586.05 z"
   id="path9"
   style="fill:#0f8cbb;fill-opacity:1" />
  </g>
  <path
   class="fil2"
   d="m 7884.6389,15607.238 h 1700.34 v 474.751 H 8502.806 v 984.107 h 1038.5005 v 474.731 H 8502.806 v 1498.407 h -618.1671 z m 3947.1301,2324.258 h -1419.29 c 10.725,238.202 73.359,417.05 186.272,537.385 112.098,119.519 272.824,179.687 480.525,179.687 106.328,0 211.005,-15.659 314.03,-46.16 103.84,-30.502 205.213,-75.826 304.956,-137.645 v 461.559 c -109.632,55.214 -222.545,95.603 -339.576,122.804 -116.217,26.381 -239.019,39.55 -368.428,39.55 -375.013,0 -665.146,-113.726 -869.544,-340.388 -204.3973,-227.476 -306.6065,-550.556 -306.6065,-969.258 0,-410.446 94.7874,-735.198 285.1775,-973.38 190.391,-238.202 449.187,-357.72 778.061,-357.72 288.46,0 520.079,115.399 695.626,345.343 175.568,230.78 263.751,539.037 263.751,925.589 0,32.153 0,66.753 -0.815,103.023 -0.837,36.272 -2.489,72.524 -4.139,109.611 z m -553.865,-360.983 v -46.16 c 0,-211.819 -34.62,-373.38 -103.84,-484.64 -69.241,-111.262 -171.45,-166.494 -307.444,-166.494 -141.764,0 -250.559,56.886 -327.2,171.448 -76.663,113.728 -121.987,289.296 -136.83,525.846 z m 2941.605,360.983 h -1419.285 c 10.725,238.202 73.36,417.05 186.274,537.385 112.098,119.519 272.826,179.687 480.524,179.687 106.33,0 211.005,-15.659 314.029,-46.16 103.839,-30.502 205.211,-75.826 304.954,-137.645 v 461.559 c -109.631,55.214 -222.546,95.603 -339.576,122.804 -116.215,26.381 -239.015,39.55 -368.423,39.55 -375.012,0 -665.147,-113.726 -869.546,-340.388 -204.4,-227.476 -306.611,-550.556 -306.611,-969.258 0,-410.446 94.788,-735.198 285.181,-973.38 190.393,-238.202 449.189,-357.72 778.064,-357.72 288.457,0 520.075,115.399 695.621,345.343 175.57,230.78 263.75,539.037 263.75,925.589 0,32.153 0,66.753 -0.816,103.023 -0.836,36.272 -2.488,72.524 -4.14,109.611 z m -553.859,-360.983 v -46.16 c 0,-211.819 -34.619,-373.38 -103.839,-484.64 -69.241,-111.262 -171.451,-166.494 -307.446,-166.494 -141.76,0 -250.558,56.886 -327.199,171.448 -76.663,113.728 -121.987,289.296 -136.832,525.846 z m 2456.965,73.338 c 0,-231.596 -40.39,-411.281 -120.334,-539.017 -80.779,-127.756 -192.878,-192.043 -335.455,-192.043 -148.35,0 -260.445,72.523 -335.456,218.405 -75.826,145.882 -113.728,360.188 -113.728,642.876 0,285.179 37.088,499.487 112.074,643.715 75.011,144.23 187.11,215.937 337.11,215.937 142.577,0 254.676,-64.285 335.455,-192.042 79.944,-127.753 120.334,-307.421 120.334,-539.017 z m 0,-2303.643 h 588.481 v 3699.026 h -542.318 c -9.911,-88.18 -15.66,-160.723 -18.149,-215.937 -2.468,-56.048 -4.118,-110.444 -4.118,-165.677 -81.597,150.836 -177.198,261.282 -285.994,331.337 -108.794,70.056 -237.365,104.676 -387.387,104.676 -281.872,0 -498.645,-113.749 -650.296,-340.391 -152.467,-226.66 -228.292,-552.226 -228.292,-975.029 0,-436.013 74.988,-767.35 225.825,-992.36 150,-224.992 369.24,-337.923 657.723,-337.923 143.412,0 266.213,32.153 369.238,95.624 103.023,63.448 194.508,164.004 275.287,301.651 z m 2886.354,321.428 -28.829,523.38 c -112.935,-46.976 -219.242,-82.409 -318.986,-106.327 -99.717,-23.896 -192.852,-36.25 -279.405,-36.25 -162.355,0 -287.644,34.598 -374.172,103.837 -86.553,69.243 -130.225,168.149 -130.225,296.72 0,94.786 32.132,181.318 95.605,258.792 63.446,76.665 206.862,185.457 430.22,325.57 l 50.28,31.315 c 482.989,307.422 724.474,640.412 724.474,999.762 0,308.26 -103.025,558.817 -309.075,749.205 -206.049,190.391 -475.568,285.993 -808.535,285.993 -136.826,0 -272.821,-14.842 -407.162,-43.671 -134.342,-28.851 -257.142,-69.241 -370.079,-120.335 l 46.161,-528.336 c 120.335,67.59 239.016,117.869 356.072,151.676 116.193,33.782 231.595,51.092 346.159,51.092 162.375,0 290.946,-39.575 385.733,-119.519 94.767,-79.945 142.58,-186.272 142.58,-319.777 0,-209.351 -175.548,-422.821 -525.848,-639.597 -51.093,-32.13 -89.83,-56.863 -115.379,-72.522 -259.631,-164.026 -436.829,-315.678 -531.618,-454.953 -94.784,-139.294 -142.576,-304.975 -142.576,-496.18 0,-290.111 98.07,-520.077 294.23,-691.503 196.16,-171.433 463.211,-257.166 799.485,-257.166 110.443,0 223.358,9.073 336.268,28.035 113.751,18.126 225.012,45.323 334.622,80.759 z m 1296.478,3037.21 v 1428.333 h -588.481 v -2966.296 c 0,-25.569 -4.116,-141.764 -12.354,-349.464 -4.118,-126.94 -8.257,-229.964 -11.541,-309.093 h 562.097 c 7.423,89.854 13.192,164.028 16.496,221.728 3.28,58.515 4.934,111.26 4.934,159.887 81.595,-149.997 177.221,-260.443 284.362,-330.501 107.958,-70.052 237.367,-105.51 386.549,-105.51 288.461,0 507.7,112.931 659.352,337.923 150.834,225.01 226.661,553.044 226.661,982.452 0,431.059 -75.827,759.928 -228.291,985.754 -151.652,226.662 -372.543,339.574 -662.675,339.574 -144.229,0 -267.869,-31.315 -369.239,-94.788 -101.372,-63.447 -190.393,-164.005 -267.87,-299.999 z m 0,-801.133 c 0,234.897 38.739,415.398 117.032,541.502 78.313,126.105 188.761,189.574 332.174,189.574 149.165,0 262.099,-71.706 337.09,-215.956 75.822,-144.229 113.746,-358.515 113.746,-643.693 0,-284.362 -37.924,-499.462 -113.746,-643.715 -74.991,-145.044 -187.925,-217.587 -337.09,-217.587 -143.413,0 -253.861,62.654 -332.174,187.923 -78.293,126.104 -117.032,304.954 -117.032,538.203 z m 2031.679,-1395.387 h 588.479 v 2536.908 h -588.479 z m -14.845,-1063.212 h 618.146 v 578.595 h -618.146 z m 3189.679,1848.688 v 1751.432 h -593.438 v -1632.749 c 0,-158.237 -28.01,-272.802 -83.224,-345.344 -56.049,-72.523 -143.415,-108.795 -262.099,-108.795 -126.104,0 -225.844,52.746 -300.02,159.073 -74.174,106.33 -111.261,251.393 -111.261,435.178 v 14.841 1477.796 h -593.435 v -1949.243 c 0,-114.563 -1.65,-219.24 -5.769,-314.027 -4.119,-95.604 -10.703,-186.27 -18.126,-273.638 h 537.388 c 1.63,20.613 4.932,55.234 9.886,101.393 9.887,121.15 14.822,212.633 14.822,273.638 61.005,-135.177 153.303,-240.668 276.126,-315.678 123.617,-75.827 262.074,-113.749 417.031,-113.749 231.619,0 407.978,71.706 529.966,215.119 121.17,142.601 182.153,351.116 182.153,624.753 z"
   id="path12"
   style="fill:#ffffff;fill-opacity:1;stroke-width:2.145" />
 </g>
</svg>
