<?xml version="1.0" encoding="UTF-8" standalone="no"?>
<!-- Creator: CorelDRAW -->

<svg
   xml:space="preserve"
   width="123.33594mm"
   height="32.979298mm"
   version="1.1"
   style="clip-rule:evenodd;fill-rule:evenodd;image-rendering:optimizeQuality;shape-rendering:geometricPrecision;text-rendering:geometricPrecision"
   viewBox="0 0 12333.594 3297.9298"
   id="svg1913"
   sodipodi:docname="FeedSpin Thiago SVG Quebrado.svg"
   xmlns:inkscape="http://www.inkscape.org/namespaces/inkscape"
   xmlns:sodipodi="http://sodipodi.sourceforge.net/DTD/sodipodi-0.dtd"
   xmlns="http://www.w3.org/2000/svg"
   xmlns:svg="http://www.w3.org/2000/svg"><sodipodi:namedview
   id="namedview1915"
   pagecolor="#ffffff"
   bordercolor="#000000"
   borderopacity="0.25"
   inkscape:showpageshadow="2"
   inkscape:pageopacity="0.0"
   inkscape:pagecheckerboard="0"
   inkscape:deskcolor="#d1d1d1"
   inkscape:document-units="mm"
   showgrid="false" />
 <defs
   id="defs1902"><style
     type="text/css"
     id="style1900">
   <![CDATA[
    .fil0 {fill:#373435}
    .fil1 {fill:#0F8CBB}
    .fil2 {fill:#373435;fill-rule:nonzero}
   ]]>
  </style></defs>
 <g
   id="Camada_x0020_1"
   inkscape:label="Camada 1"
   inkscape:groupmode="layer"
   transform="translate(-4239.9459,-15674.701)">
  <metadata
   id="CorelCorpID_0Corel-Layer" />
  <g
   id="_2239679950176"
   style="fill:#ffffff">
   <path
   class="fil0"
   d="m 4267.15,17583.25 c 1.84,76.97 19.71,221.46 76.86,279.12 49.03,49.44 126.86,94.12 240.42,138.96 637.75,251.87 1963.39,251.87 2601.14,0 113.56,-44.84 191.39,-89.52 240.42,-138.96 57.15,-57.66 75.02,-202.15 76.86,-279.12 -408.74,462.91 -2826.96,462.91 -3235.7,0 z m 524.34,-1386.88 c 295.45,341.26 1891.57,341.26 2187.02,0 47.5,-54.89 33.87,-91.86 -11.96,-133.16 -64.22,-57.89 -111.72,-94.93 -184.33,-142.85 1.71,6.98 2.57,14.03 2.57,21.14 0,370.39 -1799.58,370.39 -1799.58,0 0,-7.11 0.86,-14.16 2.57,-21.14 -72.61,47.92 -120.11,84.96 -184.33,142.85 -45.83,41.3 -59.46,78.27 -11.96,133.16 z m 732.72,-449.39 c 0,-28.58 45.46,-54.33 118,-72.28 -21.58,2.41 -381.32,48.02 -381.32,150.93 0,217.02 1248.22,217.02 1248.22,0 0,-102.91 -359.74,-148.52 -381.32,-150.93 72.54,17.95 118,43.7 118,72.28 0,129.75 -721.58,129.75 -721.58,0 z m 1967.61,1185.73 c 16.53,72.09 60.75,247.45 24.03,311.62 -231.37,403.87 -1683.84,406.95 -2175.82,360.13 -5.17,-90.93 -7.87,-184.39 -7.87,-279.76 l 0.07,-25.15 c 470.27,46.38 1979.41,48.92 2159.59,-366.84 z m -230.94,-505.11 c 22.71,30.98 124.83,150.71 124.83,212.56 0,389.2 -1668.75,372.31 -2041.44,338.17 6.83,-96.28 16.46,-189.44 28.6,-278.7 393.86,37.12 1731.93,49.2 1888.01,-272.03 z m -2332.21,2238.46 c 570.14,408.76 1342.52,408.76 1912.66,0 -519.19,216.85 -1393.47,216.85 -1912.66,0 z m -460.72,-515.69 c 0.3,1.06 0.49,2.11 0.81,3.17 15.08,47.87 88.98,156.34 125.92,189.89 464.1,422.19 2121.15,421.66 2582.34,-1.55 35.97,-32.97 109.41,-141.35 124.22,-188.34 0.32,-1.06 0.51,-2.11 0.81,-3.17 -487.83,396.58 -2346.27,396.58 -2834.1,0 z"
   id="path1905"
   style="fill:#ffffff" />
   <path
   class="fil1"
   d="m 4254.12,17043.04 c -14.05,75.63 -23.21,160.91 0.02,200.96 37.84,65.17 111.21,117.39 177.76,150.29 134.85,66.83 328.78,123.38 562.29,164.23 -5.9,-76.38 -8.96,-154.44 -8.96,-233.82 0,-237.1 27.14,-462.5 75.98,-666.25 -305.01,-53.52 -515.97,-136.13 -561.99,-230.85 -4.71,6.42 -12.82,16.65 -22.73,29.39 -109.09,176.03 -185.93,374.13 -222.37,586.05 z"
   id="path1907"
   style="fill:#0f8cbb;fill-opacity:1" />
  </g>
  <path
   class="fil2"
   d="m 8355.68,16568.19 h 792.7 v 221.33 h -504.51 v 458.79 h 484.15 v 221.32 h -484.15 v 698.56 h -288.19 z m 1840.15,1083.57 h -661.67 c 5,111.05 34.2,194.43 86.84,250.53 52.26,55.72 127.19,83.77 224.02,83.77 49.57,0 98.37,-7.3 146.4,-21.52 48.41,-14.22 95.67,-35.35 142.17,-64.17 v 215.18 c -51.11,25.74 -103.75,44.57 -158.31,57.25 -54.18,12.3 -111.43,18.44 -171.76,18.44 -174.83,0 -310.09,-53.02 -405.38,-158.69 -95.29,-106.05 -142.94,-256.67 -142.94,-451.87 0,-191.35 44.19,-342.75 132.95,-453.79 88.76,-111.05 209.41,-166.77 362.73,-166.77 134.48,0 242.46,53.8 324.3,161 81.85,107.59 122.96,251.3 122.96,431.51 0,14.99 0,31.12 -0.38,48.03 -0.39,16.91 -1.16,33.81 -1.93,51.1 z m -258.21,-168.29 v -21.52 c 0,-98.75 -16.14,-174.07 -48.41,-225.94 -32.28,-51.87 -79.93,-77.62 -143.33,-77.62 -66.09,0 -116.81,26.52 -152.54,79.93 -35.74,53.02 -56.87,134.87 -63.79,245.15 z m 1371.37,168.29 h -661.67 c 5,111.05 34.2,194.43 86.84,250.53 52.26,55.72 127.19,83.77 224.02,83.77 49.57,0 98.37,-7.3 146.4,-21.52 48.41,-14.22 95.67,-35.35 142.17,-64.17 v 215.18 c -51.11,25.74 -103.75,44.57 -158.31,57.25 -54.18,12.3 -111.43,18.44 -171.76,18.44 -174.83,0 -310.09,-53.02 -405.38,-158.69 -95.29,-106.05 -142.94,-256.67 -142.94,-451.87 0,-191.35 44.19,-342.75 132.95,-453.79 88.76,-111.05 209.41,-166.77 362.73,-166.77 134.48,0 242.46,53.8 324.3,161 81.85,107.59 122.96,251.3 122.96,431.51 0,14.99 0,31.12 -0.38,48.03 -0.39,16.91 -1.16,33.81 -1.93,51.1 z m -258.21,-168.29 v -21.52 c 0,-98.75 -16.14,-174.07 -48.41,-225.94 -32.28,-51.87 -79.93,-77.62 -143.33,-77.62 -66.09,0 -116.81,26.52 -152.54,79.93 -35.74,53.02 -56.87,134.87 -63.79,245.15 z m 1145.44,34.19 c 0,-107.97 -18.83,-191.74 -56.1,-251.29 -37.66,-59.56 -89.92,-89.53 -156.39,-89.53 -69.16,0 -121.42,33.81 -156.39,101.82 -35.35,68.01 -53.02,167.92 -53.02,299.71 0,132.95 17.29,232.86 52.25,300.1 34.97,67.24 87.23,100.67 157.16,100.67 66.47,0 118.73,-29.97 156.39,-89.53 37.27,-59.56 56.1,-143.32 56.1,-251.29 z m 0,-1073.96 h 274.35 v 1724.49 h -252.83 c -4.62,-41.11 -7.3,-74.93 -8.46,-100.67 -1.15,-26.13 -1.92,-51.49 -1.92,-77.24 -38.04,70.32 -82.61,121.81 -133.33,154.47 -50.72,32.66 -110.66,48.8 -180.6,48.8 -131.41,0 -232.47,-53.03 -303.17,-158.69 -71.08,-105.67 -106.43,-257.45 -106.43,-454.56 0,-203.27 34.96,-357.74 105.28,-462.64 69.93,-104.89 172.14,-157.54 306.63,-157.54 66.86,0 124.11,14.99 172.14,44.58 48.03,29.58 90.68,76.46 128.34,140.63 z m 1345.62,149.85 -13.44,244 c -52.65,-21.9 -102.21,-38.42 -148.71,-49.57 -46.49,-11.14 -89.91,-16.9 -130.26,-16.9 -75.69,0 -134.1,16.13 -174.44,48.41 -40.35,32.28 -60.71,78.39 -60.71,138.33 0,44.19 14.98,84.53 44.57,120.65 29.58,35.74 96.44,86.46 200.57,151.78 l 23.44,14.6 c 225.17,143.32 337.75,298.56 337.75,466.09 0,143.71 -48.03,260.52 -144.09,349.28 -96.06,88.76 -221.71,133.33 -376.94,133.33 -63.79,0 -127.19,-6.92 -189.82,-20.36 -62.63,-13.45 -119.88,-32.28 -172.53,-56.1 l 21.52,-246.31 c 56.1,31.51 111.43,54.95 166,70.71 54.17,15.75 107.97,23.82 161.38,23.82 75.7,0 135.64,-18.45 179.83,-55.72 44.18,-37.27 66.47,-86.84 66.47,-149.08 0,-97.6 -81.84,-197.12 -245.15,-298.18 -23.82,-14.98 -41.88,-26.51 -53.79,-33.81 -121.04,-76.47 -203.65,-147.17 -247.84,-212.1 -44.19,-64.94 -66.47,-142.18 -66.47,-231.32 0,-135.25 45.72,-242.46 137.17,-322.38 91.45,-79.92 215.95,-119.89 372.72,-119.89 51.49,0 104.13,4.23 156.77,13.07 53.03,8.45 104.9,21.13 156,37.65 z m 604.42,1415.95 v 665.89 h -274.35 V 17292.5 c 0,-11.92 -1.92,-66.09 -5.76,-162.92 -1.92,-59.18 -3.85,-107.21 -5.38,-144.1 h 262.05 c 3.46,41.89 6.15,76.47 7.69,103.37 1.53,27.28 2.3,51.87 2.3,74.54 38.04,-69.93 82.62,-121.42 132.57,-154.08 50.33,-32.66 110.66,-49.19 180.21,-49.19 134.48,0 236.69,52.65 307.39,157.54 70.32,104.9 105.67,257.83 105.67,458.02 0,200.96 -35.35,354.28 -106.43,459.56 -70.7,105.67 -173.68,158.31 -308.94,158.31 -67.24,0 -124.88,-14.6 -172.14,-44.19 -47.26,-29.58 -88.76,-76.46 -124.88,-139.86 z m 0,-373.49 c 0,109.51 18.06,193.66 54.56,252.45 36.51,58.79 88,88.38 154.86,88.38 69.54,0 122.19,-33.43 157.15,-100.68 35.35,-67.24 53.03,-167.14 53.03,-300.09 0,-132.57 -17.68,-232.85 -53.03,-300.1 -34.96,-67.62 -87.61,-101.44 -157.15,-101.44 -66.86,0 -118.35,29.21 -154.86,87.61 -36.5,58.79 -54.56,142.17 -54.56,250.91 z m 947.17,-650.53 h 274.35 v 1182.71 h -274.35 z m -6.92,-495.67 h 288.18 v 269.74 h -288.18 z m 1487.03,861.86 v 816.52 h -276.66 V 17407 c 0,-73.77 -13.06,-127.18 -38.8,-161 -26.13,-33.81 -66.86,-50.72 -122.19,-50.72 -58.79,0 -105.29,24.59 -139.87,74.16 -34.58,49.57 -51.87,117.2 -51.87,202.88 v 6.92 688.95 h -276.66 v -908.74 c 0,-53.41 -0.77,-102.21 -2.69,-146.4 -1.92,-44.57 -4.99,-86.84 -8.45,-127.57 h 250.53 c 0.76,9.61 2.3,25.75 4.61,47.27 4.61,56.48 6.91,99.13 6.91,127.57 28.44,-63.02 71.47,-112.2 128.73,-147.17 57.63,-35.35 122.18,-53.03 194.42,-53.03 107.98,0 190.2,33.43 247.07,100.29 56.49,66.48 84.92,163.69 84.92,291.26 z"
   id="path1910"
   style="fill:#ffffff" />
 </g>
</svg>
